<?xml version="1.0" encoding="UTF-8" standalone="no"?>
<!-- Generator: Adobe Illustrator 18.0.0, SVG Export Plug-In . SVG Version: 6.00 Build 0)  -->

<svg
   xmlns:dc="http://purl.org/dc/elements/1.1/"
   xmlns:cc="http://creativecommons.org/ns#"
   xmlns:rdf="http://www.w3.org/1999/02/22-rdf-syntax-ns#"
   xmlns:svg="http://www.w3.org/2000/svg"
   xmlns="http://www.w3.org/2000/svg"
   xmlns:xlink="http://www.w3.org/1999/xlink"
   xmlns:sodipodi="http://sodipodi.sourceforge.net/DTD/sodipodi-0.dtd"
   xmlns:inkscape="http://www.inkscape.org/namespaces/inkscape"
   version="1.1"
   id="Capa_1"
   x="0px"
   y="0px"
   viewBox="0 0 144.773 144.773"
   xml:space="preserve"
   sodipodi:docname="avatar-svgrepo-com(1).svg"
   style="enable-background:new 0 0 144.773 144.773;"
   inkscape:version="0.92.4 (5da689c313, 2019-01-14)"><metadata
   id="metadata75"><rdf:RDF><cc:Work
       rdf:about=""><dc:format>image/svg+xml</dc:format><dc:type
         rdf:resource="http://purl.org/dc/dcmitype/StillImage" /><dc:title></dc:title></cc:Work></rdf:RDF></metadata><defs
   id="defs73" /><sodipodi:namedview
   pagecolor="#ffffff"
   bordercolor="#666666"
   borderopacity="1"
   objecttolerance="10"
   gridtolerance="10"
   guidetolerance="10"
   inkscape:pageopacity="0"
   inkscape:pageshadow="2"
   inkscape:window-width="1366"
   inkscape:window-height="705"
   id="namedview71"
   showgrid="false"
   inkscape:zoom="1.6301383"
   inkscape:cx="72.385498"
   inkscape:cy="72.385507"
   inkscape:window-x="-8"
   inkscape:window-y="-8"
   inkscape:window-maximized="1"
   inkscape:current-layer="Capa_1" />
<g
   id="g38">
	<circle
   style="fill:#FC611F;"
   cx="72.387"
   cy="72.386"
   r="72.386"
   id="circle2" />
	<g
   id="g36">
		<defs
   id="defs5">
			<circle
   id="SVGID_1_"
   cx="72.387"
   cy="72.386"
   r="72.386" />
		</defs>
		<clipPath
   id="SVGID_2_">
			<use
   xlink:href="#SVGID_1_"
   style="overflow:visible;"
   id="use7" />
		</clipPath>
		<g
   clip-path="url(#SVGID_2_)"
   id="g34"
   style="clip-path:url(#SVGID_2_);">
			<path
   style="fill:#A25A34;"
   d="M59.141,98.774h25.219c0,0,12.947-12.774,12.447-29.35s-16.334-26.742-30.5-26.742     C52.141,42.683,41.641,77.533,59.141,98.774z"
   id="path10" />
			<path
   style="fill:#F1C9A5;"
   d="M107.053,116.94c-4.666-8.833-34.666-14.376-34.666-14.376s-30,5.543-34.666,14.376     c-3.449,12.258-6.334,27.833-6.334,27.833h41h41C113.387,144.773,111.438,128.073,107.053,116.94z"
   id="path12" />
			<path
   style="fill:#E4B692;"
   d="M72.387,102.564c0,0,30,5.543,34.666,14.376c4.386,11.133,6.334,27.833,6.334,27.833h-41V102.564z     "
   id="path14" />
			<rect
   x="64.22"
   y="84.606"
   style="fill:#F1C9A5;"
   width="16.334"
   height="27.336"
   id="rect16" />
			<rect
   x="72.387"
   y="84.606"
   style="fill:#E4B692;"
   width="8.167"
   height="27.336"
   id="rect18" />
			<path
   style="opacity:0.1;fill:#DDAC8C;"
   d="M64.22,97.273c1.469,4.217,7.397,6.634,11.751,6.634c1.575,0,3.107-0.264,4.583-0.747     V84.606H64.22V97.273z"
   id="path20" />
			<path
   style="fill:#F1C9A5;"
   d="M93.387,67.357c0-17.074-9.402-26.783-21-26.783c-11.598,0-21,9.709-21,26.783     s9.402,30.917,21,30.917C83.984,98.274,93.387,84.432,93.387,67.357z"
   id="path22" />
			<path
   style="fill:#E4B692;"
   d="M90.19,79.195c-3.807-0.424-6.377-4.783-5.732-9.732c0.637-4.953,4.242-8.63,8.051-8.209     c3.805,0.422,6.371,4.779,5.729,9.732C97.599,75.939,93.997,79.613,90.19,79.195z"
   id="path24" />
			<path
   style="fill:#F1C9A5;"
   d="M46.685,70.986c-0.643-4.953,1.924-9.31,5.727-9.732c3.81-0.421,7.416,3.256,8.055,8.209     c0.643,4.949-1.93,9.309-5.734,9.732C50.925,79.613,47.323,75.939,46.685,70.986z"
   id="path26" />
			<path
   style="fill:#E4B692;"
   d="M93.387,67.357c0-17.074-9.402-26.783-21-26.783v57.7C83.984,98.274,93.387,84.432,93.387,67.357z     "
   id="path28" />
			<path
   style="fill:#01561E;"
   d="M107.053,116.94c-0.278-0.527-0.652-1.043-1.101-1.547c-5.091,6.702-18.195,11.474-33.564,11.474     h-0.001l0,0c-0.001,0-0.001,0-0.001,0c-15.369,0-28.474-4.771-33.565-11.473c-0.447,0.503-0.821,1.019-1.1,1.546     c-3.449,12.258-6.334,27.833-6.334,27.833h41h41C113.387,144.773,111.438,128.073,107.053,116.94z"
   id="path30" />
			<path
   style="fill:#D1874A;"
   d="M63.611,49.212c3.486,6.291,12.223,9.875,18.526,14.601c11.036,8.274,6.048,26.568,2.222,34.962     c13.868-8.061,24.036-21.585,18.934-43.5c-5.102-21.916-22.517-31.241-40.532-23.47C47.936,27.918,32.72,50.431,34.474,70.793     c1.753,20.36,24.667,27.981,24.667,27.981S45.474,68.441,63.611,49.212z"
   id="path32" />
		</g>
	</g>
</g>
<g
   id="g40">
</g>
<g
   id="g42">
</g>
<g
   id="g44">
</g>
<g
   id="g46">
</g>
<g
   id="g48">
</g>
<g
   id="g50">
</g>
<g
   id="g52">
</g>
<g
   id="g54">
</g>
<g
   id="g56">
</g>
<g
   id="g58">
</g>
<g
   id="g60">
</g>
<g
   id="g62">
</g>
<g
   id="g64">
</g>
<g
   id="g66">
</g>
<g
   id="g68">
</g>
</svg>