<?xml version="1.0" encoding="UTF-8" standalone="no"?>
<!-- Created with Inkscape (http://www.inkscape.org/) -->

<svg
   xmlns:dc="http://purl.org/dc/elements/1.1/"
   xmlns:cc="http://creativecommons.org/ns#"
   xmlns:rdf="http://www.w3.org/1999/02/22-rdf-syntax-ns#"
   xmlns:svg="http://www.w3.org/2000/svg"
   xmlns="http://www.w3.org/2000/svg"
   xmlns:sodipodi="http://sodipodi.sourceforge.net/DTD/sodipodi-0.dtd"
   xmlns:inkscape="http://www.inkscape.org/namespaces/inkscape"
   width="183.83598mm"
   height="190.25291mm"
   viewBox="0 0 183.83599 190.25292"
   version="1.1"
   id="svg4600"
   inkscape:version="0.92.4 (5da689c313, 2019-01-14)"
   sodipodi:docname="choice_icon.svg">
  <defs
     id="defs4594">
    <inkscape:path-effect
       effect="simplify"
       id="path-effect3744"
       is_visible="true"
       steps="1"
       threshold="0.000625"
       smooth_angles="360"
       helper_size="0"
       simplify_individual_paths="false"
       simplify_just_coalesce="false"
       simplifyindividualpaths="false"
       simplifyJustCoalesce="false" />
    <inkscape:path-effect
       effect="bspline"
       id="path-effect3746"
       is_visible="true"
       weight="33.333333"
       steps="2"
       helper_size="0"
       apply_no_weight="true"
       apply_with_weight="true"
       only_selected="false" />
    <inkscape:path-effect
       effect="powerstroke"
       id="path-effect3748"
       is_visible="true"
       offset_points="11,0.13229166"
       sort_points="true"
       interpolator_type="CubicBezierJohan"
       interpolator_beta="0.2"
       start_linecap_type="zerowidth"
       linejoin_type="extrp_arc"
       miter_limit="4"
       end_linecap_type="zerowidth" />
    <clipPath
       clipPathUnits="userSpaceOnUse"
       id="clipPath842">
      <rect
         style="fill:none;fill-rule:evenodd;stroke-width:0.26458332"
         id="rect844"
         width="182.5522"
         height="168.05673"
         x="-34.845444"
         y="-37.945694"
         ry="7.559516" />
    </clipPath>
  </defs>
  <sodipodi:namedview
     id="base"
     pagecolor="#ffffff"
     bordercolor="#666666"
     borderopacity="1.0"
     inkscape:pageopacity="0.0"
     inkscape:pageshadow="2"
     inkscape:zoom="0.50343077"
     inkscape:cx="347.40657"
     inkscape:cy="169.8347"
     inkscape:document-units="mm"
     inkscape:current-layer="g838"
     showgrid="false"
     fit-margin-top="0"
     fit-margin-left="0"
     fit-margin-right="0"
     fit-margin-bottom="0"
     inkscape:window-width="1366"
     inkscape:window-height="705"
     inkscape:window-x="-8"
     inkscape:window-y="-8"
     inkscape:window-maximized="1" />
  <metadata
     id="metadata4597">
    <rdf:RDF>
      <cc:Work
         rdf:about="">
        <dc:format>image/svg+xml</dc:format>
        <dc:type
           rdf:resource="http://purl.org/dc/dcmitype/StillImage" />
        <dc:title />
      </cc:Work>
    </rdf:RDF>
  </metadata>
  <g
     inkscape:label="Layer 1"
     inkscape:groupmode="layer"
     id="layer1"
     transform="translate(29.862631,60.141871)">
    <g
       id="g838"
       clip-path="url(#clipPath842)"
       transform="matrix(1.160221,0,0,1.160221,4.7846202,-20.846518)">
      <path
         sodipodi:nodetypes="cccccccccccccccsccccccccccccscccccccscccccccccssccscccccscccsccsccsccsccsccccccccscccccccccsccscscccscccccccccscccccsccccscccccc"
         inkscape:connector-curvature="0"
         d="m 47.24247,215.43772 c -3.878787,-1.9619 -5.43757,-6.17013 -4.056023,-10.94811 4.020798,-13.90238 4.467594,-17.72618 4.495033,-38.48149 0,-11.42757 -0.189101,-20.96803 -0.451246,-21.20103 -0.263258,-0.23285 -2.288488,-0.70038 -4.500595,-1.03872 l -4.022651,-0.6151 -1.170941,8.37023 C 34.696942,171.81989 28.286061,189.56991 18.507336,204.20997 10.542493,216.13406 5.5483828,218.26778 -0.42237598,212.2972 -4.1984554,208.52131 -3.5506932,204.90916 2.5439079,195.74938 15.827669,175.78492 21.292676,154.30795 20.593375,124.81526 l -0.329999,-13.89952 3.666327,-1.09686 c 7.648563,-2.2883 13.097626,-11.059752 15.522934,-24.986381 l 1.12348,-6.451482 h 3.775338 c 9.331559,0 19.441025,3.668997 25.294986,9.180352 5.52767,5.203715 7.278149,9.714432 6.872509,17.708601 -0.394516,7.7799 -3.221013,14.66817 -9.269637,22.58966 l -3.520237,4.61024 1.07639,11.02271 c 3.347822,34.28457 -1.05266,68.33165 -9.31821,72.09764 -3.13907,1.43031 -5.190997,1.39234 -8.245157,-0.15239 z M 64.318624,110.08881 c 0.859852,-2.52356 1.561749,-5.50294 1.559895,-6.62085 0,-3.13407 -3.49799,-8.140377 -6.908846,-9.904278 -2.916228,-1.507911 -3.046374,-1.497677 -2.51615,0.197628 0.548762,1.756078 4.523212,20.71204 4.523212,21.57449 0,1.75392 2.056747,-1.47521 3.341889,-5.24699 z m -49.450548,-2.96554 c -7.7405178,-3.97619 -8.7371892,-13.580315 -2.0675,-19.925011 3.279969,-3.120271 10.617072,-6.481108 11.726462,-5.371569 0.404156,0.404267 -2.366724,9.251617 -4.27182,13.638157 -0.611054,1.407836 -0.500189,1.683033 0.443831,1.099676 2.292566,-1.416994 4.965559,-9.077719 6.059747,-17.366777 1.150177,-8.716388 2.729723,-11.608107 6.340432,-11.608107 5.703051,0 6.924048,8.105964 3.335215,22.138601 -3.93218,15.37399 -12.323797,22.14264 -21.566367,17.39503 z m 2.843183,-31.932046 c -1.833534,-1.214805 -4.376381,-4.31027 -5.6504,-6.878813 -3.1375867,-6.323338 -2.3403979,-12.116343 2.387117,-17.348904 9.87513,-10.930794 27.903833,-4.618467 27.872316,9.758851 0,8.318573 -2.079736,11.171285 -4.38528,6.068016 -1.545063,-3.42083 -8.328954,-2.369356 -13.011233,2.016628 -2.518746,2.359456 -2.918453,4.170632 -0.735639,3.333028 1.104199,-0.423771 1.471277,0.162033 1.471277,2.347628 0,2.403617 -0.403044,2.912335 -2.307398,2.912335 -1.269199,0 -3.807596,-0.993928 -5.64076,-2.208769 z M 2.4875485,60.278825 c -0.6833576,-1.78092 0.307752,-3.480601 2.0326461,-3.480601 1.7901523,0 2.5943861,2.456157 1.2458392,3.804593 -1.4946363,1.494414 -2.6236781,1.382844 -3.2784853,-0.324067 z m 43.4464195,0.02596 c -0.747875,-1.949479 2.025971,-4.161363 3.442372,-2.744888 1.354479,1.354627 0.341123,4.144714 -1.507614,4.144714 -0.768638,0 -1.639242,-0.629927 -1.934758,-1.399864 z M -6.1387759,58.454708 c -2.5624985,-1.873801 -1.2517718,-5.579431 1.9736912,-5.579431 2.7371385,0 4.12758405,2.450706 2.6870824,4.734856 -1.3511423,2.141546 -2.5817793,2.36461 -4.6607736,0.844575 z m 3.8387422,-2.649781 c 0,-2.102836 -2.8505989,-1.799126 -3.2640247,0.347797 -0.2521341,1.31106 0.1483142,1.710618 1.4582994,1.458114 0.9933343,-0.191326 1.8057253,-1.003939 1.8057253,-1.805911 z m 56.7642927,2.46602 c -1.382289,-3.6027 2.60106,-6.784485 5.218064,-4.167666 2.180589,2.180775 0.809424,5.639239 -2.235837,5.639239 -1.329637,0 -2.671509,-0.662185 -2.982227,-1.471573 z m 4.377122,-1.798087 c 0.181685,-0.946282 -0.307752,-1.635535 -1.168345,-1.635535 -1.822411,0 -2.922531,1.599235 -2.059713,2.994909 0.887289,1.435792 2.846149,0.61098 3.228058,-1.359374 z m 2.871363,-5.638239 C 59.622626,49.617296 59.43093,44.755074 61.4087,43.114126 c 4.469448,-3.709153 10.832127,2.502505 6.953711,6.788304 -1.976287,2.183555 -4.010787,2.468801 -6.648925,0.932191 z m 5.140199,-2.361532 c 1.629973,-1.964125 0.543943,-4.427142 -1.951814,-4.427142 -2.225826,0 -3.46907,2.120151 -2.588454,4.414646 0.722661,1.883331 2.982228,1.88956 4.540268,0.01112 z m -77.196797,1.37617 c -4.12091,-1.52441 -3.676338,-7.852347 0.6481329,-9.224883 4.0804943,-1.295117 7.4427772,2.721936 5.8595231,7.001208 -0.8835818,2.388526 -3.5754845,3.308371 -6.507656,2.223675 z m 4.6103467,-2.36969 c 0.9744242,-1.174018 0.9744242,-1.769092 0,-2.94311 -0.6718634,-0.80935 -1.775321,-1.471573 -2.4527461,-1.471573 -0.6770543,0 -1.7808827,0.662223 -2.4523756,1.471573 -0.974424,1.174018 -0.974424,1.769092 0,2.94311 0.6714929,0.809351 1.7753213,1.471536 2.4523756,1.471536 0.6774251,0 1.7808827,-0.662185 2.4527461,-1.471536 z M 80.222727,42.954725 C 74.150373,41.529166 65.046106,36.18574 61.305622,31.851813 44.696656,12.607602 50.351506,-17.507578 72.887848,-28.165584 c 31.073532,-11.02021 38.489892,-4.829723 52.903672,13.61532 12.28864,26.719099 -18.31866,63.9023 -45.568793,57.504989 z m 20.284563,-6.048104 c 6.40791,-2.933618 15.29916,-12.474888 15.29916,-12.474888 8.6469,-14.228481 8.17377,-23.94466209 4.16424,-38.981997 -7.49959,-7.125879 0,0.529167 -13.16394,-11.50952 -7.315225,-3.428394 -26.367255,-0.802082 -33.20491,2.339287 C 64.267716,-19.432251 59.061999,-9.1832022 56.443882,1.0362392 52.355231,16.99518 62.483607,34.289839 78.585709,38.844346 84.99214,40.656449 94.067486,39.85418 100.50581,36.906621 Z M -1.3189353,38.797182 C -16.325366,34.902229 -26.467832,23.890493 -29.335487,8.3795346 -32.197951,-7.1055798 -23.170807,-23.6085 -7.8925913,-30.821576 c 5.8276356,-2.751302 7.51990057,-3.096504 14.9126217,-3.042258 10.7423976,0.07898 17.6445686,2.67062 24.9894586,9.383283 24.11663,22.0411953 10.242579,61.493105 -22.5370834,64.085378 -3.2810808,0.25955 -8.0567979,-0.09789 -10.7913409,-0.807645 z M 19.298592,33.356201 c 6.353038,-2.800283 13.520693,-9.90724 16.33755,-16.198617 3.088643,-6.89813 3.159463,-18.7254825 0.152022,-25.2789307 -2.975553,-6.4836663 -9.408311,-13.0639223 -15.875551,-16.2399593 -4.647426,-2.282148 -6.792791,-2.717932 -13.382761,-2.717932 -6.58997056,0 -8.7357062,0.435784 -13.3827607,2.717932 -6.4676113,3.176037 -12.9003693,9.756293 -15.8759223,16.2399593 -3.017823,6.5756211 -2.95479,18.4229957 0.133483,25.1887557 2.474622,5.419512 8.874009,12.548902 13.4276254,14.959119 8.82729021,4.672119 19.7280126,5.181319 28.4659436,1.329673 z"
         style="fill:#4888d9;fill-opacity:1;stroke-width:0.98103654"
         id="path3738" />
      <rect
         transform="matrix(0.99997006,-0.00773772,-0.66686234,0.74518093,0,0)"
         ry="0"
         y="53.210381"
         x="52.820915"
         height="33.146133"
         width="26.396526"
         id="rect3740"
         style="fill:#4888d9;fill-opacity:1;fill-rule:evenodd;stroke-width:0.80636168" />
      <path
         transform="matrix(3.7078549,0,0,3.7078549,5851.6049,2406.7757)"
         inkscape:original-d="m -1579.4506,-631.85677 c 0.1341,0.22318 0.2656,0.44897 0.3944,0.67744 0,0.0382 0,0.079 0,0.12248 0,0.2015 0,0.40563 0,0.61243 -0.038,0.16065 -0.079,0.32398 -0.1225,0.48993 -0.038,0.24233 -0.079,0.48728 -0.1225,0.7349 -0.038,0.28313 -0.079,0.56894 -0.1225,0.85739 -0.079,0.32398 -0.1606,0.65058 -0.2449,0.97985 -0.038,0.36481 -0.079,0.73226 -0.1225,1.10236 -0.1198,0.69141 -0.2423,1.38549 -0.3675,2.08222 -0.079,0.32398 -0.1606,0.65058 -0.2449,0.97986 -0.038,0.24233 -0.079,0.48728 -0.1225,0.73491 0,0.11983 0,0.24233 0,0.36745 0,0.32398 0,0.65058 0,0.97986"
         inkscape:path-effect="#path-effect3744;#path-effect3746;#path-effect3748"
         inkscape:connector-curvature="0"
         id="path3742"
         d="m -1579.4506,-631.85677 c 0.054,0.0937 0.1318,0.22674 0.1953,0.35411 0.055,0.11048 0.1086,0.23364 0.1369,0.34963 0.05,0.20453 0.053,0.44826 0.025,0.66942 -0.024,0.1985 -0.066,0.3447 -0.1147,0.56448 -0.044,0.19922 -0.09,0.44048 -0.1368,0.71335 -0.045,0.2595 -0.091,0.54928 -0.1572,0.85317 -0.065,0.30198 -0.1532,0.63234 -0.2194,0.97952 -0.067,0.35123 -0.1133,0.7226 -0.1983,1.24328 -0.089,0.54521 -0.2166,1.23625 -0.3197,1.72888 -0.1106,0.52842 -0.1949,0.84525 -0.2575,1.11865 -0.072,0.31421 -0.1136,0.56388 -0.1358,0.89592 -0.026,0.38204 -0.026,0.92158 -0.026,1.25067 0,0 0.1323,0 0.1323,0 0,0 0.1323,0 0.1323,0 0,-0.32356 -0,-0.87225 0.014,-1.23591 0.016,-0.31711 0.048,-0.55593 0.1093,-0.86216 0.054,-0.26936 0.1304,-0.59223 0.2325,-1.12686 0.095,-0.49564 0.2138,-1.19475 0.293,-1.74227 0.076,-0.52548 0.1126,-0.89823 0.1684,-1.24465 0.055,-0.34231 0.1329,-0.67416 0.1894,-0.98206 0.057,-0.3092 0.094,-0.60326 0.1288,-0.86286 0.037,-0.2737 0.073,-0.51555 0.1081,-0.71509 0.039,-0.21955 0.073,-0.37133 0.089,-0.57274 0.018,-0.2254 0.01,-0.47003 -0.047,-0.67552 -0.032,-0.11614 -0.088,-0.2389 -0.1447,-0.3484 -0.064,-0.1247 -0.1448,-0.26065 -0.1983,-0.35256 z"
         style="fill:#4888d9;fill-opacity:1;fill-rule:nonzero;stroke:none;stroke-width:0.26458332px;stroke-linecap:butt;stroke-linejoin:miter;stroke-opacity:1" />
      <path
         inkscape:connector-curvature="0"
         id="path3760"
         d="M -9.2466999,103.69469 Z"
         style="opacity:1;fill:#ff6600;fill-opacity:1;fill-rule:nonzero;stroke:#1aeee7;stroke-width:3.57807994;stroke-linecap:square;stroke-linejoin:round;stroke-miterlimit:4;stroke-dasharray:28.62463853, 28.62463853;stroke-dashoffset:0;stroke-opacity:1" />
      <path
         sodipodi:nodetypes="cccc"
         inkscape:connector-curvature="0"
         id="path3762"
         d="m -4.21477,113.23189 -13.624513,-3.63329 8.5925831,-5.90391 z"
         style="opacity:1;fill:#4888d9;fill-opacity:1;fill-rule:nonzero;stroke:none;stroke-width:3.57807994;stroke-linecap:square;stroke-linejoin:round;stroke-miterlimit:4;stroke-dasharray:28.62463853, 28.62463853;stroke-dashoffset:0;stroke-opacity:1" />
      <g
         transform="matrix(1.1118688,0.1172502,-0.1172502,1.1118688,-126.45139,-131.52068)"
         style="fill:#4888d9;fill-opacity:1"
         id="g848">
        <g
           id="g851"
           transform="translate(-8.1120288,-0.08068808)"
           style="fill:#4888d9;fill-opacity:1">
          <path
             inkscape:connector-curvature="0"
             d="m 197.49349,110.38448 c 5.61564,-4.60153 10.90706,-9.59624 16.19228,-14.570626 4.5685,-4.189948 9.00319,-8.521008 13.4422,-12.846463 4.74541,-4.6237 11.28431,2.087323 6.5389,6.711023 v 0 c -4.47821,4.363043 -8.95176,8.732075 -13.55989,12.959156 -5.49377,5.16878 -10.99388,10.35909 -16.84156,15.12796 -5.21919,4.08137 -10.99112,-3.29968 -5.77193,-7.38105 z"
             id="path833"
             style="opacity:1;fill:#4888d9;fill-opacity:1;fill-rule:nonzero;stroke:#b93046;stroke-width:0.0689496;stroke-linecap:square;stroke-linejoin:round;stroke-miterlimit:4;stroke-dasharray:none;stroke-dashoffset:0;stroke-opacity:1" />
          <path
             inkscape:connector-curvature="0"
             d="m 199.06171,87.125343 c 1.63952,0.274247 3.21982,0.782616 4.77846,1.349667 2.00093,0.803226 3.94163,1.76233 5.86242,2.741802 1.95854,0.965667 3.85293,2.06028 5.69543,3.230353 1.21172,0.697684 2.33773,1.530962 3.47767,2.338597 1.26705,0.736957 2.38388,1.705322 3.51216,2.634349 1.02723,0.963159 2.08782,1.886629 3.0928,2.872939 0.95932,0.91043 2.05874,1.66418 3.13039,2.4389 1.39244,1.22533 2.97925,2.1803 4.39352,3.37311 1.10933,0.97615 2.14098,2.03544 3.24426,3.02009 0.99071,0.81458 1.9133,1.70501 2.88317,2.5428 4.99477,4.35314 -1.1615,11.4168 -6.15627,7.06366 v 0 c -0.99468,-0.87212 -1.95847,-1.77696 -2.97543,-2.62427 -1.08344,-0.97175 -2.10486,-2.00824 -3.19077,-2.97259 -0.90499,-1.03303 -2.74627,-1.70138 -3.68815,-2.80947 -1.45262,-1.05023 -2.91634,-2.10102 -4.20811,-3.34908 -0.80852,-0.79578 -1.66824,-1.53338 -2.4819,-2.32315 -0.95585,-0.7873 -1.89167,-1.61214 -2.9751,-2.22367 -1.02777,-0.72934 -2.03228,-1.4848 -3.13128,-2.10445 -1.56166,-1.0321 -3.22314,-1.91952 -4.89061,-2.766815 -1.58802,-0.816133 -3.1963,-1.606796 -4.84313,-2.294506 -1.32783,-0.504674 -2.68222,-0.858044 -4.07787,-1.121562 -6.37578,-1.801955 -3.82743,-10.818658 2.54834,-9.016704 z"
             id="path845"
             style="opacity:1;fill:#4888d9;fill-opacity:1;fill-rule:nonzero;stroke:#b93046;stroke-width:0.0689496;stroke-linecap:square;stroke-linejoin:round;stroke-miterlimit:4;stroke-dasharray:none;stroke-dashoffset:0;stroke-opacity:1" />
        </g>
      </g>
      <path
         inkscape:transform-center-y="-0.11661922"
         inkscape:transform-center-x="0.42621651"
         transform="rotate(-33.851665)"
         d="M 7.4941194,71.354644 A 11.551069,4.076848 0 0 1 -8.4885715,70.37319 11.551069,4.076848 0 0 1 -5.9281697,64.719258 11.551069,4.076848 0 0 1 10.125047,65.544975 11.551069,4.076848 0 0 1 8.0068275,71.221651"
         sodipodi:open="true"
         sodipodi:end="0.90945617"
         sodipodi:start="0.96454748"
         sodipodi:ry="4.076848"
         sodipodi:rx="11.551069"
         sodipodi:cy="68.004326"
         sodipodi:cx="0.91244942"
         sodipodi:type="arc"
         id="path850"
         style="fill:#4888d9;fill-opacity:1;fill-rule:evenodd;stroke:#b93046;stroke-width:0.1;stroke-miterlimit:4;stroke-dasharray:none;stroke-opacity:1" />
      <path
         style="opacity:1;fill:#5fff3e;fill-opacity:1;fill-rule:nonzero;stroke:#4888d9;stroke-width:0.07141928;stroke-linecap:square;stroke-linejoin:round;stroke-miterlimit:4;stroke-dasharray:none;stroke-dashoffset:0;stroke-opacity:1"
         id="path865"
         d="m -14.325851,-6.6387942 c 3.352268,2.5585923 5.4102108,6.36757316 7.4121031,9.9926646 2.0412809,3.7332687 4.0183336,7.5009606 5.94160882,11.2964636 0.87248207,1.610681 1.50820296,3.362012 2.41256458,4.955246 0.081164,0.142985 0.2815992,0.549978 0.3054319,0.3873 0.027527,-0.187893 -0.1935771,-0.326761 -0.2903651,-0.490143 -1.45687977,-0.929633 -1.34028693,-1.157885 -3.2487853,-1.015751 -0.3897164,0.02903 -0.7442886,0.238812 -1.1135115,0.366857 -0.080277,0.02784 -0.2649236,0.179769 -0.2342339,0.100539 0.076051,-0.196333 0.2687277,-0.324895 0.3882738,-0.498212 0.1316464,-0.190857 0.2427637,-0.39509 0.364146,-0.592635 C 0.20031225,13.719643 2.691444,9.5283342 5.4245489,5.4737435 10.963872,-2.1300702 17.009654,-9.3531114 23.27051,-16.36935 c 4.175366,-4.506476 8.720148,-8.651994 13.598551,-12.381971 0.418008,-0.320965 0.836018,-0.641929 1.254026,-0.962894 5.443436,-4.17942 11.354027,3.518761 5.910592,7.69818 v 0 c -0.429893,0.330046 -0.859785,0.660091 -1.289677,0.990136 -4.40492,3.326761 -8.456152,7.096823 -12.233087,11.1197991 C 24.537909,-3.2174342 18.774768,3.670635 13.468722,10.904062 10.750045,14.924952 8.2968069,19.098359 5.7149931,23.204748 3.8323601,25.977991 1.4507418,28.779754 -2.3805884,28.01682 -3.2874558,27.836235 -4.0562276,27.234316 -4.8940476,26.843065 -5.3799695,26.343076 -5.9161473,25.887438 -6.3518116,25.343098 -7.8313683,23.494472 -8.439951,21.05361 -9.6299657,19.036573 -11.502987,15.338701 -13.428933,11.668385 -15.417655,8.0315464 c -1.248916,-2.2812206 -2.50332,-4.6899802 -4.291849,-6.5948623 -5.710226,-3.8068173 -0.326573,-11.8822951 5.383653,-8.0754783 z"
         inkscape:connector-curvature="0" />
    </g>
  </g>
</svg>
