<?xml version="1.0" encoding="UTF-8" standalone="no"?>
<svg
   xmlns:dc="http://purl.org/dc/elements/1.1/"
   xmlns:cc="http://creativecommons.org/ns#"
   xmlns:rdf="http://www.w3.org/1999/02/22-rdf-syntax-ns#"
   xmlns:svg="http://www.w3.org/2000/svg"
   xmlns="http://www.w3.org/2000/svg"
   xmlns:sodipodi="http://sodipodi.sourceforge.net/DTD/sodipodi-0.dtd"
   xmlns:inkscape="http://www.inkscape.org/namespaces/inkscape"
   viewBox="0 0 2048 2048"
   version="1.1"
   id="svg4"
   sodipodi:docname="landing-tips.svg"
   inkscape:version="0.92.4 (5da689c313, 2019-01-14)">
  <metadata
     id="metadata10">
    <rdf:RDF>
      <cc:Work
         rdf:about="">
        <dc:format>image/svg+xml</dc:format>
        <dc:type
           rdf:resource="http://purl.org/dc/dcmitype/StillImage" />
        <dc:title></dc:title>
      </cc:Work>
    </rdf:RDF>
  </metadata>
  <defs
     id="defs8" />
  <sodipodi:namedview
     pagecolor="#ffffff"
     bordercolor="#666666"
     borderopacity="1"
     objecttolerance="10"
     gridtolerance="10"
     guidetolerance="10"
     inkscape:pageopacity="0"
     inkscape:pageshadow="2"
     inkscape:window-width="1366"
     inkscape:window-height="705"
     id="namedview6"
     showgrid="false"
     inkscape:zoom="0.11523438"
     inkscape:cx="-386.16949"
     inkscape:cy="1024"
     inkscape:window-x="-8"
     inkscape:window-y="-8"
     inkscape:window-maximized="1"
     inkscape:current-layer="svg4" />
  <path
     d="M1792 384q27 0 50 10t40 27 28 41 10 50v256q0 66-25 124t-69 102-102 69-124 25h-33q-24 69-65 129t-95 108-118 82-137 50v335l108-108q12 2 36 8t49 15 44 23 19 30v94q9 4 20 10t20 15 17 19 7 22q0 27-28 47t-73 34-97 24-103 14-90 7-57 2q-17 0-57-2t-89-7-103-14-98-23-72-35-29-47q0-12 7-22t16-18 21-15 20-11v-94q0-16 16-28t41-22 55-17 59-12 52-7 33-4v-213q-72-16-136-50t-119-81-95-108-65-130h-33q-66 0-124-25t-102-68-69-102-25-125V512q0-27 10-50t27-40 41-28 50-10h192V128q0-20 23-36t58-30 79-22 83-16 72-10 45-5q108-9 216-9t216 9q13 1 45 4t72 10 83 16 78 23 59 29 23 37v256h192zM517 189q12 39 45 69t78 51 98 36 106 23 100 12 80 4q33 0 80-3t99-12 106-23 99-36 78-52 45-69q-50 20-115 33t-135 20-136 11-121 3q-54 0-121-3t-136-10-134-21-116-33zm-65 771q-2-16-3-32t-1-32V512H256v256q0 40 15 75t41 61 61 41 75 15h4zm1340-448h-192v384q0 16-1 32t-3 32q40 0 76-14t62-40 42-61 16-77V512z"
     id="path2"
     style="fill:#4888d9;fill-opacity:1" />
</svg>
