<?xml version="1.0" encoding="UTF-8" standalone="no"?>
<svg
   xmlns:dc="http://purl.org/dc/elements/1.1/"
   xmlns:cc="http://creativecommons.org/ns#"
   xmlns:rdf="http://www.w3.org/1999/02/22-rdf-syntax-ns#"
   xmlns:svg="http://www.w3.org/2000/svg"
   xmlns="http://www.w3.org/2000/svg"
   xmlns:sodipodi="http://sodipodi.sourceforge.net/DTD/sodipodi-0.dtd"
   xmlns:inkscape="http://www.inkscape.org/namespaces/inkscape"
   width="200"
   height="200"
   viewBox="0 0 200 200"
   version="1.1"
   id="svg34"
   sodipodi:docname="logo.svg"
   inkscape:version="0.92.4 (5da689c313, 2019-01-14)"
   inkscape:export-filename="C:\Users\zoltan\Documents\GitHub\DrINVET_docusaurus\my-website\static\img\favico.png"
   inkscape:export-xdpi="15.36"
   inkscape:export-ydpi="15.36">
  <metadata
     id="metadata40">
    <rdf:RDF>
      <cc:Work
         rdf:about="">
        <dc:format>image/svg+xml</dc:format>
        <dc:type
           rdf:resource="http://purl.org/dc/dcmitype/StillImage" />
      </cc:Work>
    </rdf:RDF>
  </metadata>
  <defs
     id="defs38">
    <clipPath
       clipPathUnits="userSpaceOnUse"
       id="clipPath11">
      <path
         style="fill:#ff0000;fill-rule:evenodd;stroke-width:0.73012835"
         id="path13"
         sodipodi:type="arc"
         sodipodi:cx="67.034256"
         sodipodi:cy="121.36351"
         sodipodi:rx="64.469246"
         sodipodi:ry="64.469246"
         sodipodi:start="0.47348165"
         sodipodi:end="0.42255992"
         sodipodi:open="true"
         d="M 124.41099,150.76069 A 64.469246,64.469246 0 0 1 38.369868,179.10982 64.469246,64.469246 0 0 1 8.9277231,93.436561 64.469246,64.469246 0 0 1 94.219241,62.906173 64.469246,64.469246 0 0 1 125.83292,147.80213" />
    </clipPath>
    <clipPath
       clipPathUnits="userSpaceOnUse"
       id="clipPath36">
      <path
         style="fill:#000000;stroke-width:1.15662646"
         d="m 212.79684,-302.03308 v -260.81928 h 260.81928 260.81927 v 260.81928 260.81927 H 473.61612 212.79684 Z m 305.41264,255.712984 c 51.62339,-8.770121 96.73394,-31.3073 135.63396,-67.762574 19.88852,-18.63859 40.43805,-46.90133 53.37676,-73.41158 12.23882,-25.07625 20.20421,-51.3065 24.39133,-80.3214 2.50475,-17.35678 1.83907,-61.09656 -1.18084,-77.59093 -10.27912,-56.14291 -33.86582,-101.71219 -72.79736,-140.64373 -38.25055,-38.25055 -83.7329,-62.13104 -137.75216,-72.32673 -15.94886,-3.01021 -58.00535,-4.29023 -75.31905,-2.2924 -37.25159,4.29849 -75.49627,17.3592 -106.84352,36.48748 -37.2737,22.74464 -68.67048,55.26962 -90.51095,93.76333 -2.88747,5.08916 -5.59527,10.40783 -6.01732,11.81926 l -0.76738,2.56625 20.59658,-0.66757 c 28.31218,-0.91763 47.28148,2.42371 72.91607,12.84378 l 9.52428,3.87149 40.21066,-16.21793 c 39.07734,-15.76085 40.39992,-16.20079 46.9266,-15.60952 14.68185,1.33007 28.51779,12.65955 36.64504,30.00658 5.31628,11.34724 30.24528,71.72824 36.41726,88.20694 4.02952,10.7585 4.29893,12.25938 3.85774,21.49109 -0.61375,12.84278 -4.22536,20.63026 -13.33194,28.74683 -7.74782,6.90551 -8.0876,6.16097 8.07923,17.70342 13.9533,9.96208 17.61295,13.53733 19.40023,18.95287 1.81872,5.51077 -0.0545,11.98009 -4.56875,15.77859 -1.82697,1.53728 -8.45371,5.00861 -14.7261,7.71404 -20.28901,8.75113 -25.86217,11.4927 -25.86217,12.72223 0,0.66358 4.63623,12.80677 10.30273,26.98488 13.41259,33.55953 14.52228,37.40966 12.92667,44.84977 -3.23106,15.06589 -14.9245,27.599384 -28.43422,30.476909 -2.81608,0.599815 -47.52706,5.301143 -50.60241,5.320805 -0.47711,0.0035 -0.86747,0.802329 -0.86747,1.776162 0,2.702782 11.68309,31.671545 13.77456,34.154672 4.45487,5.289102 54.91081,5.651103 84.60194,0.606986 z m -105.31626,-5.808856 c 0,-0.914175 -3.13842,-9.61706 -6.97428,-19.339744 -6.23307,-15.79887 -6.83084,-18.023942 -5.6245,-20.936292 2.24213,-5.413001 0.65182,-5.060137 43.06089,-9.554512 15.16379,-1.60702 29.26956,-3.63174 31.34613,-4.49938 5.62243,-2.3492 9.12336,-8.01661 9.66328,-15.64314 0.42442,-5.99532 -0.47001,-8.75873 -13.03263,-40.26528 -9.0225,-22.62811 -13.24207,-34.60408 -12.74455,-36.17161 0.862,-2.71592 7.48996,-6.17645 29.73205,-15.52344 8.72306,-3.66578 16.4209,-7.34073 17.10628,-8.16658 0.9491,-1.14359 0.0634,-2.46336 -3.71554,-5.53637 -10.99884,-8.94419 -30.33301,-21.64128 -32.95372,-21.64128 -1.52043,0 -22.64904,8.10112 -46.95247,18.00248 -24.30343,9.90137 -47.27149,19.04587 -51.04017,20.32114 -6.58913,2.22967 -7.05196,2.24234 -12.05942,0.32997 -8.09815,-3.09271 -13.95077,-9.89575 -19.19407,-22.31107 -2.5099,-5.94302 -5.26681,-11.07542 -6.12648,-11.40531 -1.89465,-0.72704 -10.3785,2.50459 -60.4426,23.0236 -38.09105,15.6118 -38.74279,15.93426 -38.49895,19.0486 0.65206,8.32809 21.4076,44.49946 36.0756,62.87011 9.2683,11.6079 28.43928,30.68116 40.59202,40.385104 25.17343,20.100942 57.02418,36.807556 87.3253,45.804595 10.84813,3.221043 14.45783,3.522749 14.45783,1.208409 z M 247.80836,-226.97627 c 23.87339,-9.45902 134.1196,-55.4699 139.55468,-58.24267 9.18349,-4.68507 9.14666,-8.0853 -0.34145,-31.5268 -8.91271,-22.01992 -9.84298,-23.53349 -15.06659,-24.51344 -4.86075,-0.91189 -19.6481,4.75832 -100.74852,38.63205 -29.26265,12.22232 -53.91909,22.51083 -54.79209,22.86337 -2.024,0.81733 -1.1445,10.29874 2.71801,29.30145 4.36527,21.47614 7.19259,29.97139 9.97482,29.97139 1.28311,0 9.69862,-2.91841 18.70114,-6.48535 z m 130.18408,-2.93239 c 22.55213,-8.75162 71.31695,-28.98745 72.47333,-30.07409 1.53103,-1.43869 -0.78454,-7.82154 -19.66074,-54.19491 -21.01544,-51.62884 -36.38085,-87.74425 -37.67007,-88.54102 -1.79832,-1.11143 -85.51008,32.78818 -89.18916,36.11772 -3.25941,2.94972 -2.69189,11.05129 1.50495,21.48354 2.53799,6.30879 4.19537,8.96385 5.59556,8.96385 1.09421,0 13.13691,-4.51421 26.76157,-10.03157 28.46139,-11.52556 33.50526,-12.38857 42.59641,-7.28826 7.71827,4.33011 10.87605,9.19545 19.88295,30.63462 9.02174,21.47449 10.20942,26.72063 7.90927,34.93598 -2.80133,10.00534 -7.83455,13.59652 -35.24981,25.1505 -13.33543,5.62013 -24.93257,10.84624 -25.7714,11.61358 -1.25139,1.14475 -0.85759,3.12619 2.19395,11.03909 4.31988,11.20183 7.51607,14.98221 12.667,14.98221 1.98529,0 9.16557,-2.15606 15.95619,-4.79124 z m 101.98512,-42.36009 c 9.9673,-4.96205 13.07348,-8.74394 15.06644,-18.34396 1.81548,-8.74516 0.64018,-13.0961 -12.14559,-44.96254 -21.58991,-53.80938 -28.15561,-68.3361 -33.13799,-73.3185 -6.20148,-6.20147 -13.03446,-8.71624 -21.54931,-7.93088 -5.92128,0.54613 -19.94439,5.55814 -19.94439,7.12833 0,2.21549 52.7763,131.94716 56.85578,139.7596 1.58091,3.02755 5.24445,2.45243 14.85506,-2.33205 z M 247.1945,-308.861 c 34.75997,-14.0378 49.08469,-20.12856 50.40894,-21.43351 0.52315,-0.51552 -1.16842,-6.56205 -3.75904,-13.43672 -5.40377,-14.33988 -5.99107,-21.23271 -2.40764,-28.25683 2.96083,-5.8037 7.68298,-9.30638 18.80586,-13.94933 6.53384,-2.72738 8.96386,-4.31326 8.96386,-5.85003 0,-2.1884 -0.79189,-2.49467 -16.19277,-6.26257 -15.91594,-3.89391 -60.44021,-3.2635 -69.3846,0.98241 -2.1898,1.0395 -3.62333,3.57826 -5.99109,10.61012 -7.61199,22.60636 -12.01536,46.87635 -13.2515,73.0381 -0.70544,14.9299 -0.59385,16.59109 1.11447,16.59109 1.04413,0 15.30621,-5.41473 31.69351,-12.03273 z"
         id="path38"
         inkscape:connector-curvature="0" />
    </clipPath>
  </defs>
  <sodipodi:namedview
     pagecolor="#ffffff"
     bordercolor="#666666"
     borderopacity="1"
     objecttolerance="10"
     gridtolerance="10"
     guidetolerance="10"
     inkscape:pageopacity="0"
     inkscape:pageshadow="2"
     inkscape:window-width="1366"
     inkscape:window-height="705"
     id="namedview36"
     showgrid="false"
     inkscape:zoom="2.68"
     inkscape:cx="39.365672"
     inkscape:cy="100"
     inkscape:window-x="-8"
     inkscape:window-y="-8"
     inkscape:window-maximized="1"
     inkscape:current-layer="svg34" />
  <path
     style="opacity:1;fill:#000080;fill-opacity:1;fill-rule:nonzero;stroke:none;stroke-width:0;stroke-linecap:square;stroke-linejoin:round;stroke-miterlimit:4;stroke-dasharray:none;stroke-dashoffset:0;stroke-opacity:1"
     d=""
     id="path833"
     inkscape:connector-curvature="0" />
  <path
     style="opacity:1;fill:#4888d9;fill-opacity:1;fill-rule:nonzero;stroke:none;stroke-width:0;stroke-linecap:square;stroke-linejoin:round;stroke-miterlimit:4;stroke-dasharray:none;stroke-dashoffset:0;stroke-opacity:1"
     d="m 111.82522,201.63019 c -2.78473,-0.64584 -4.54532,-1.22074 -3.91243,-1.27755 1.76403,-0.15837 1.42228,-1.97709 -2.07129,-11.02309 -3.4853,-9.0246 -3.85661,-11.34241 -2.0564,-12.83645 0.64108,-0.53204 8.61553,-1.83638 17.72101,-2.89853 20.34645,-2.37339 21.90861,-2.83747 23.93655,-7.11105 2.14645,-4.52328 1.62476,-6.83596 -6.03273,-26.74347 -5.45189,-14.17356 -6.3553,-17.26554 -5.33652,-18.2646 0.67452,-0.66146 6.16584,-3.40298 12.20293,-6.09227 6.0371,-2.68929 11.14005,-5.38878 11.33989,-5.99886 0.39214,-1.19706 -9.77822,-9.07158 -16.02389,-12.40668 l -3.83376,-2.047187 -26.25347,10.428197 c -14.439412,5.7355 -27.313365,10.42819 -28.608789,10.42819 -3.825027,0 -8.441479,-4.30953 -11.694177,-10.91669 -1.644774,-3.34102 -3.554732,-6.291083 -4.24435,-6.55572 -2.721094,-1.044177 -50.781971,18.67948 -51.72441,21.22713 -0.512889,1.38647 -1.07353,0.64946 -2.660459,-3.49745 -2.387475,-6.23886 -2.369673,-6.09084 -0.653289,-5.4322 0.746538,0.28647 4.371291,-0.62189 8.055006,-2.01859 12.031367,-4.56177 74.766446,-30.869639 76.891283,-32.244259 3.026565,-1.957976 2.672448,-6.4692 -1.285211,-16.372836 C 91.615648,50.054066 90.251803,47.785166 87.879751,47.16486 85.310593,46.49301 75.754681,50.048243 38.757853,65.440434 14.4432,75.556323 5.5375499,79.666608 4.9851816,81.027763 4.4807298,82.270842 4.215879,80.905108 4.1766414,76.858431 4.1255512,71.589363 4.3353433,70.824121 5.8624919,70.709085 7.9254869,70.553684 46.417569,55.063417 47.996065,53.753383 c 0.818638,-0.67941 0.537894,-2.508732 -1.143842,-7.45324 -4.104879,-12.068845 -2.825544,-16.105701 6.651339,-20.987844 3.470136,-1.787687 6.309338,-3.840758 6.309338,-4.562378 0,-0.748273 -1.78001,-1.871873 -4.142575,-2.614929 -5.277274,-1.659767 -32.042085,-2.519268 -37.718493,-1.211256 -2.264687,0.52185 -4.201356,0.865075 -4.303708,0.762722 -0.102353,-0.102353 0.639377,-2.09306 1.648289,-4.423795 L 17.1308,9.0249642 26.044127,8.4311668 c 14.178724,-0.9445733 27.891986,1.192427 40.458597,6.3048472 l 5.769253,2.34708 19.916475,-7.9675096 C 103.14251,4.7334542 113.8778,0.94824649 116.04464,0.70401182 c 2.86996,-0.32348602 5.07885,0.10738068 8.13493,1.58680328 7.08648,3.4305036 10.608,8.4809139 17.81084,25.5434449 13.54812,32.093651 15.86494,38.563139 15.8432,44.240482 -0.0238,6.206957 -2.19033,11.47816 -6.30771,15.346597 -1.58279,1.487092 -2.85926,3.35125 -2.83659,4.142574 0.0226,0.791323 3.39188,3.924315 7.48715,6.962203 8.03058,5.957114 10.58412,9.752344 9.1318,13.572244 -1.16353,3.06031 -2.42102,3.90598 -12.62783,8.49227 -5.00251,2.24781 -9.47128,4.66981 -9.9306,5.38222 -0.56921,0.88287 0.95805,5.9526 4.79663,15.9223 3.09748,8.04485 5.9044,15.78303 6.2376,17.19594 1.38279,5.86353 -3.77629,15.50307 -10.05181,18.78146 -1.73545,0.90661 -8.60258,2.1668 -17.02209,3.12373 -7.7622,0.88222 -14.31034,1.80129 -14.55142,2.04238 -0.54038,0.54038 5.78997,17.09611 7.17515,18.76515 1.25158,1.50806 -0.42467,1.4693 -7.50867,-0.17362 z m -6.59987,-101.37021 c 16.74166,-6.781481 24.09074,-10.120594 24.09074,-10.945837 0,-1.807861 -25.62565,-64.816642 -29.069,-71.475341 -0.746432,-1.443452 -2.071467,-2.623445 -2.944519,-2.622205 -1.750486,0.0025 -35.402459,13.397202 -41.771123,16.626439 -4.531962,2.297935 -5.350456,3.230806 -5.370458,6.120933 -0.02295,3.315394 3.686701,12.232113 5.08896,12.232113 0.708665,0 7.300443,-2.278416 14.648393,-5.063146 14.539266,-5.5101 17.840736,-5.990443 22.335744,-3.249714 4.504376,2.74644 14.067703,23.180341 14.067703,30.058373 0,7.097939 -2.80163,9.204573 -26.006162,19.554821 -5.100572,2.275083 -6.210239,3.153097 -6.193644,4.900674 0.02978,3.136113 3.163094,9.49999 5.474526,11.11898 2.632932,1.84418 4.455668,1.32853 25.64884,-7.25609 z m 38.88369,-16.495344 c 5.77981,-2.928853 8.21332,-6.721509 8.21791,-12.807758 0.003,-3.572879 -1.67078,-8.733306 -7.76187,-23.934874 C 134.39336,21.63637 131.7585,15.963207 128.32251,12.049835 124.2726,7.4372407 119.80811,6.4021491 112.63915,8.4136535 c -3.07223,0.8620257 -5.78347,2.0822255 -6.02497,2.7115545 -0.24149,0.629328 1.47681,6.052975 3.81844,12.052548 7.53442,19.304174 24.61409,60.582767 25.55827,61.769922 1.32957,1.671703 2.95081,1.435444 8.11815,-1.183042 z"
     id="path919"
     inkscape:connector-curvature="0" />
</svg>
